<?xml version="1.0" encoding="UTF-8"?>
<svg xmlns="http://www.w3.org/2000/svg" xmlns:xlink="http://www.w3.org/1999/xlink" width="581pt" height="300pt" viewBox="0 0 581 300" version="1.1">
<g id="surface1">
<path style=" stroke:none;fill-rule:nonzero;fill:rgb(43.921569%,100%,38.823529%);fill-opacity:1;" d="M 172.9375 167.199219 L 367.199219 167.199219 L 367.199219 299.75 L 172.9375 299.75 Z M 172.9375 167.199219 "/>
<path style=" stroke:none;fill-rule:nonzero;fill:rgb(24.705882%,23.921569%,33.72549%);fill-opacity:1;" d="M 378.035156 151.695312 L 186.871094 151.695312 C 185.589844 151.699219 184.550781 152.738281 184.546875 154.023438 L 184.546875 283.46875 C 184.546875 284.753906 185.585938 285.796875 186.871094 285.796875 L 378.035156 285.796875 C 379.320312 285.796875 380.359375 284.753906 380.359375 283.46875 L 380.359375 154.023438 C 380.355469 152.738281 379.316406 151.699219 378.035156 151.695312 Z M 378.808594 283.46875 C 378.808594 283.675781 378.730469 283.871094 378.582031 284.019531 C 378.4375 284.164062 378.242188 284.246094 378.035156 284.246094 L 186.871094 284.246094 C 186.664062 284.246094 186.46875 284.164062 186.324219 284.019531 C 186.175781 283.871094 186.097656 283.675781 186.097656 283.46875 L 186.097656 154.023438 C 186.097656 153.59375 186.441406 153.246094 186.871094 153.246094 L 378.035156 153.246094 C 378.460938 153.246094 378.808594 153.59375 378.808594 154.023438 Z M 378.808594 283.46875 "/>
<path style=" stroke:none;fill-rule:nonzero;fill:rgb(24.705882%,23.921569%,33.72549%);fill-opacity:1;" d="M 195.738281 243.164062 L 280.9375 243.164062 C 281.558594 243.164062 282.066406 243.667969 282.066406 244.292969 L 282.066406 252.105469 C 282.066406 252.734375 281.558594 253.238281 280.9375 253.238281 L 195.738281 253.238281 C 195.117188 253.238281 194.609375 252.734375 194.609375 252.105469 L 194.609375 244.292969 C 194.609375 243.667969 195.117188 243.164062 195.738281 243.164062 Z M 195.738281 243.164062 "/>
<path style=" stroke:none;fill-rule:nonzero;fill:rgb(24.705882%,23.921569%,33.72549%);fill-opacity:1;" d="M 361.78125 234.636719 L 333.921875 234.636719 C 332.640625 234.636719 331.601562 235.679688 331.601562 236.964844 L 331.601562 258.664062 C 331.601562 259.949219 332.640625 260.992188 333.921875 260.992188 L 361.78125 260.992188 C 363.0625 260.992188 364.105469 259.949219 364.105469 258.664062 L 364.105469 236.964844 C 364.105469 235.679688 363.0625 234.636719 361.78125 234.636719 Z M 362.554688 258.664062 C 362.554688 259.09375 362.207031 259.441406 361.78125 259.441406 L 333.921875 259.441406 C 333.496094 259.441406 333.148438 259.09375 333.148438 258.664062 L 333.148438 236.964844 C 333.148438 236.757812 333.230469 236.558594 333.375 236.414062 C 333.519531 236.269531 333.71875 236.1875 333.921875 236.1875 L 361.78125 236.1875 C 361.988281 236.1875 362.183594 236.269531 362.328125 236.414062 C 362.472656 236.558594 362.554688 236.757812 362.554688 236.964844 Z M 362.554688 258.664062 "/>
<path style=" stroke:none;fill-rule:nonzero;fill:rgb(24.705882%,23.921569%,33.72549%);fill-opacity:1;" d="M 339.488281 239.644531 L 356.21875 239.644531 C 356.84375 239.644531 357.347656 240.152344 357.347656 240.777344 L 357.347656 242.449219 C 357.347656 243.074219 356.84375 243.578125 356.21875 243.578125 L 339.488281 243.578125 C 338.863281 243.578125 338.355469 243.074219 338.355469 242.449219 L 338.355469 240.777344 C 338.355469 240.152344 338.863281 239.644531 339.488281 239.644531 Z M 339.488281 239.644531 "/>
<path style=" stroke:none;fill-rule:nonzero;fill:rgb(24.705882%,23.921569%,33.72549%);fill-opacity:1;" d="M 339.488281 245.847656 L 356.21875 245.847656 C 356.84375 245.847656 357.347656 246.351562 357.347656 246.976562 L 357.347656 248.648438 C 357.347656 249.273438 356.84375 249.78125 356.21875 249.78125 L 339.488281 249.78125 C 338.863281 249.78125 338.355469 249.273438 338.355469 248.648438 L 338.355469 246.976562 C 338.355469 246.351562 338.863281 245.847656 339.488281 245.847656 Z M 339.488281 245.847656 "/>
<path style=" stroke:none;fill-rule:nonzero;fill:rgb(24.705882%,23.921569%,33.72549%);fill-opacity:1;" d="M 339.488281 252.046875 L 356.21875 252.046875 C 356.84375 252.046875 357.347656 252.554688 357.347656 253.179688 L 357.347656 254.851562 C 357.347656 255.476562 356.84375 255.980469 356.21875 255.980469 L 339.488281 255.980469 C 338.863281 255.980469 338.355469 255.476562 338.355469 254.851562 L 338.355469 253.179688 C 338.355469 252.554688 338.863281 252.046875 339.488281 252.046875 Z M 339.488281 252.046875 "/>
<path style=" stroke:none;fill-rule:nonzero;fill:rgb(24.705882%,23.921569%,33.72549%);fill-opacity:1;" d="M 198.0625 161 L 236.046875 161 C 236.671875 161 237.175781 161.503906 237.175781 162.128906 L 237.175781 176.917969 C 237.175781 177.542969 236.671875 178.050781 236.046875 178.050781 L 198.0625 178.050781 C 197.4375 178.050781 196.929688 177.542969 196.929688 176.917969 L 196.929688 162.128906 C 196.929688 161.503906 197.4375 161 198.0625 161 Z M 198.0625 161 "/>
<path style=" stroke:none;fill-rule:nonzero;fill:rgb(43.921569%,100%,38.823529%);fill-opacity:1;" d="M 220.148438 169.523438 C 220.148438 172.523438 218.765625 174.949219 217.054688 174.949219 C 215.34375 174.949219 213.957031 172.523438 213.957031 169.523438 C 213.957031 166.527344 217.054688 164.097656 217.054688 164.097656 C 217.054688 164.097656 220.148438 166.527344 220.148438 169.523438 Z M 220.148438 169.523438 "/>
<path style=" stroke:none;fill-rule:nonzero;fill:rgb(24.705882%,23.921569%,33.72549%);fill-opacity:1;" d="M 509.785156 91.605469 L 508.652344 91.605469 L 508.652344 218.179688 L 380.359375 218.179688 L 380.359375 219.3125 L 509.785156 219.3125 Z M 509.785156 91.605469 "/>
<path style=" stroke:none;fill-rule:nonzero;fill:rgb(24.705882%,23.921569%,33.72549%);fill-opacity:1;" d="M 172.9375 219.3125 L 43.515625 219.3125 L 43.515625 91.605469 L 44.644531 91.605469 L 44.644531 218.179688 L 172.9375 218.179688 Z M 172.9375 219.3125 "/>
<path style=" stroke:none;fill-rule:nonzero;fill:rgb(24.705882%,23.921569%,33.72549%);fill-opacity:1;" d="M 580.632812 21.402344 L 579.910156 21.402344 L 579.910156 20.132812 L 580.453125 20.132812 C 580.652344 20.132812 580.8125 19.96875 580.8125 19.769531 L 580.8125 13.238281 C 580.8125 13.039062 580.652344 12.878906 580.453125 12.878906 L 579.910156 12.878906 L 579.910156 9.167969 C 579.910156 4.804688 576.378906 1.269531 572.019531 1.269531 L 571.214844 1.269531 L 571.214844 0.363281 C 571.214844 0.164062 571.054688 0 570.855469 0 L 564.335938 0 C 564.136719 0 563.972656 0.164062 563.972656 0.363281 L 563.972656 1.269531 L 446.179688 1.269531 C 441.824219 1.269531 438.292969 4.804688 438.292969 9.167969 L 438.292969 177.277344 C 438.292969 181.640625 441.824219 185.179688 446.179688 185.179688 L 572.019531 185.179688 C 576.378906 185.179688 579.910156 181.640625 579.910156 177.277344 L 579.910156 28.65625 L 580.632812 28.65625 C 580.832031 28.65625 580.996094 28.492188 580.996094 28.292969 L 580.996094 21.765625 C 580.996094 21.5625 580.832031 21.402344 580.632812 21.402344 Z M 580.632812 21.402344 "/>
<path style=" stroke:none;fill-rule:nonzero;fill:rgb(81.568627%,80.392157%,88.235294%);fill-opacity:1;" d="M 445.890625 6.4375 L 573.398438 6.4375 C 573.996094 6.4375 574.476562 6.917969 574.476562 7.515625 L 574.476562 177.664062 C 574.476562 178.257812 573.996094 178.742188 573.398438 178.742188 L 445.890625 178.742188 C 445.292969 178.742188 444.8125 178.257812 444.8125 177.664062 L 444.8125 7.515625 C 444.8125 6.917969 445.292969 6.4375 445.890625 6.4375 Z M 445.890625 6.4375 "/>
<path style=" stroke:none;fill-rule:nonzero;fill:rgb(24.705882%,23.921569%,33.72549%);fill-opacity:1;" d="M 495.886719 90.882812 L 515.867188 90.882812 C 516.492188 90.882812 517 91.390625 517 92.015625 L 517 96.351562 C 517 96.976562 516.492188 97.484375 515.867188 97.484375 L 495.886719 97.484375 C 495.261719 97.484375 494.753906 96.976562 494.753906 96.351562 L 494.753906 92.015625 C 494.753906 91.390625 495.261719 90.882812 495.886719 90.882812 Z M 495.886719 90.882812 "/>
<path style=" stroke:none;fill-rule:nonzero;fill:rgb(24.705882%,23.921569%,33.72549%);fill-opacity:1;" d="M 468.992188 39.484375 L 542.757812 39.484375 C 543.382812 39.484375 543.890625 39.988281 543.890625 40.617188 L 543.890625 41.179688 C 543.890625 41.804688 543.382812 42.3125 542.757812 42.3125 L 468.992188 42.3125 C 468.371094 42.3125 467.863281 41.804688 467.863281 41.179688 L 467.863281 40.617188 C 467.863281 39.988281 468.371094 39.484375 468.992188 39.484375 Z M 468.992188 39.484375 "/>
<path style=" stroke:none;fill-rule:nonzero;fill:rgb(24.705882%,23.921569%,33.72549%);fill-opacity:1;" d="M 468.992188 48.441406 L 542.757812 48.441406 C 543.382812 48.441406 543.890625 48.949219 543.890625 49.574219 L 543.890625 50.140625 C 543.890625 50.765625 543.382812 51.273438 542.757812 51.273438 L 468.992188 51.273438 C 468.371094 51.273438 467.863281 50.765625 467.863281 50.140625 L 467.863281 49.574219 C 467.863281 48.949219 468.371094 48.441406 468.992188 48.441406 Z M 468.992188 48.441406 "/>
<path style=" stroke:none;fill-rule:nonzero;fill:rgb(24.705882%,23.921569%,33.72549%);fill-opacity:1;" d="M 468.992188 57.402344 L 542.757812 57.402344 C 543.382812 57.402344 543.890625 57.910156 543.890625 58.535156 L 543.890625 59.097656 C 543.890625 59.722656 543.382812 60.230469 542.757812 60.230469 L 468.992188 60.230469 C 468.371094 60.230469 467.863281 59.722656 467.863281 59.097656 L 467.863281 58.535156 C 467.863281 57.910156 468.371094 57.402344 468.992188 57.402344 Z M 468.992188 57.402344 "/>
<path style=" stroke:none;fill-rule:nonzero;fill:rgb(24.705882%,23.921569%,33.72549%);fill-opacity:1;" d="M 468.992188 66.363281 L 542.757812 66.363281 C 543.382812 66.363281 543.890625 66.867188 543.890625 67.492188 L 543.890625 68.058594 C 543.890625 68.683594 543.382812 69.191406 542.757812 69.191406 L 468.992188 69.191406 C 468.371094 69.191406 467.863281 68.683594 467.863281 68.058594 L 467.863281 67.492188 C 467.863281 66.867188 468.371094 66.363281 468.992188 66.363281 Z M 468.992188 66.363281 "/>
<path style=" stroke:none;fill-rule:nonzero;fill:rgb(24.705882%,23.921569%,33.72549%);fill-opacity:1;" d="M 468.992188 75.320312 L 542.757812 75.320312 C 543.382812 75.320312 543.890625 75.828125 543.890625 76.453125 L 543.890625 77.019531 C 543.890625 77.644531 543.382812 78.148438 542.757812 78.148438 L 468.992188 78.148438 C 468.371094 78.148438 467.863281 77.644531 467.863281 77.019531 L 467.863281 76.453125 C 467.863281 75.828125 468.371094 75.320312 468.992188 75.320312 Z M 468.992188 75.320312 "/>
<path style=" stroke:none;fill-rule:nonzero;fill:rgb(43.921569%,100%,38.823529%);fill-opacity:1;" d="M 526.796875 148.289062 C 526.796875 161.351562 516.226562 171.9375 503.183594 171.9375 C 490.144531 171.9375 479.574219 161.351562 479.574219 148.289062 C 479.574219 135.230469 490.144531 124.640625 503.183594 124.640625 C 516.226562 124.640625 526.796875 135.230469 526.796875 148.289062 Z M 526.796875 148.289062 "/>
<path style=" stroke:none;fill-rule:nonzero;fill:rgb(24.705882%,23.921569%,33.72549%);fill-opacity:1;" d="M 510.144531 166.53125 C 493.792969 166.53125 480.539062 153.253906 480.539062 136.878906 C 480.539062 120.503906 493.792969 107.230469 510.144531 107.230469 C 526.496094 107.230469 539.75 120.503906 539.75 136.878906 C 539.730469 153.25 526.488281 166.511719 510.144531 166.53125 Z M 510.144531 108.308594 C 494.390625 108.308594 481.617188 121.101562 481.617188 136.878906 C 481.617188 152.660156 494.390625 165.453125 510.144531 165.453125 C 525.902344 165.453125 538.671875 152.660156 538.671875 136.878906 C 538.65625 121.109375 525.894531 108.328125 510.144531 108.308594 Z M 510.144531 108.308594 "/>
<path style=" stroke:none;fill-rule:nonzero;fill:rgb(24.705882%,23.921569%,33.72549%);fill-opacity:1;" d="M 87.878906 49.761719 L 86.910156 49.761719 L 86.910156 23.191406 C 86.910156 14.699219 80.039062 7.816406 71.558594 7.816406 L 15.355469 7.816406 C 6.875 7.816406 0 14.699219 0 23.191406 L 0 168.953125 C 0 177.445312 6.875 184.328125 15.355469 184.328125 L 71.558594 184.328125 C 80.039062 184.328125 86.910156 177.445312 86.910156 168.953125 L 86.910156 68.671875 L 87.878906 68.671875 Z M 87.878906 49.761719 "/>
<path style=" stroke:none;fill-rule:nonzero;fill:rgb(81.568627%,80.392157%,88.235294%);fill-opacity:1;" d="M 83.640625 24.097656 L 83.640625 169.644531 C 83.644531 175.984375 78.511719 181.128906 72.175781 181.128906 L 15.703125 181.128906 C 9.371094 181.128906 4.238281 175.984375 4.238281 169.644531 L 4.238281 24.097656 C 4.238281 17.753906 9.371094 12.613281 15.703125 12.613281 L 22.554688 12.613281 C 21.871094 14.296875 22.066406 16.210938 23.078125 17.71875 C 24.089844 19.226562 25.785156 20.128906 27.597656 20.128906 L 59.796875 20.128906 C 61.609375 20.128906 63.304688 19.226562 64.316406 17.71875 C 65.328125 16.210938 65.527344 14.296875 64.839844 12.613281 L 72.175781 12.613281 C 78.507812 12.613281 83.640625 17.753906 83.640625 24.097656 Z M 83.640625 24.097656 "/>
<path style=" stroke:none;fill-rule:nonzero;fill:rgb(24.705882%,23.921569%,33.72549%);fill-opacity:1;" d="M 37.507812 98.363281 L 50.375 98.363281 C 51 98.363281 51.503906 98.867188 51.503906 99.496094 L 51.503906 101.71875 C 51.503906 102.34375 51 102.851562 50.375 102.851562 L 37.507812 102.851562 C 36.882812 102.851562 36.375 102.34375 36.375 101.71875 L 36.375 99.496094 C 36.375 98.867188 36.882812 98.363281 37.507812 98.363281 Z M 37.507812 98.363281 "/>
<path style=" stroke:none;fill-rule:nonzero;fill:rgb(24.705882%,23.921569%,33.72549%);fill-opacity:1;" d="M 19.046875 63.402344 L 68.832031 63.402344 C 69.363281 63.402344 69.792969 63.832031 69.792969 64.367188 C 69.792969 64.898438 69.363281 65.328125 68.832031 65.328125 L 19.046875 65.328125 C 18.515625 65.328125 18.085938 64.898438 18.085938 64.367188 C 18.085938 63.832031 18.515625 63.402344 19.046875 63.402344 Z M 19.046875 63.402344 "/>
<path style=" stroke:none;fill-rule:nonzero;fill:rgb(24.705882%,23.921569%,33.72549%);fill-opacity:1;" d="M 19.046875 69.496094 L 68.832031 69.496094 C 69.363281 69.496094 69.792969 69.925781 69.792969 70.460938 C 69.792969 70.992188 69.363281 71.421875 68.832031 71.421875 L 19.046875 71.421875 C 18.515625 71.421875 18.085938 70.992188 18.085938 70.460938 C 18.085938 69.925781 18.515625 69.496094 19.046875 69.496094 Z M 19.046875 69.496094 "/>
<path style=" stroke:none;fill-rule:nonzero;fill:rgb(24.705882%,23.921569%,33.72549%);fill-opacity:1;" d="M 19.046875 75.589844 L 68.832031 75.589844 C 69.363281 75.589844 69.792969 76.019531 69.792969 76.554688 C 69.792969 77.085938 69.363281 77.515625 68.832031 77.515625 L 19.046875 77.515625 C 18.515625 77.515625 18.085938 77.085938 18.085938 76.554688 C 18.085938 76.019531 18.515625 75.589844 19.046875 75.589844 Z M 19.046875 75.589844 "/>
<path style=" stroke:none;fill-rule:nonzero;fill:rgb(24.705882%,23.921569%,33.72549%);fill-opacity:1;" d="M 19.046875 81.683594 L 68.832031 81.683594 C 69.363281 81.683594 69.792969 82.113281 69.792969 82.648438 C 69.792969 83.179688 69.363281 83.609375 68.832031 83.609375 L 19.046875 83.609375 C 18.515625 83.609375 18.085938 83.179688 18.085938 82.648438 C 18.085938 82.113281 18.515625 81.683594 19.046875 81.683594 Z M 19.046875 81.683594 "/>
<path style=" stroke:none;fill-rule:nonzero;fill:rgb(24.705882%,23.921569%,33.72549%);fill-opacity:1;" d="M 19.046875 87.777344 L 68.832031 87.777344 C 69.363281 87.777344 69.792969 88.207031 69.792969 88.742188 C 69.792969 89.273438 69.363281 89.703125 68.832031 89.703125 L 19.046875 89.703125 C 18.515625 89.703125 18.085938 89.273438 18.085938 88.742188 C 18.085938 88.207031 18.515625 87.777344 19.046875 87.777344 Z M 19.046875 87.777344 "/>
<path style=" stroke:none;fill-rule:nonzero;fill:rgb(43.921569%,100%,38.823529%);fill-opacity:1;" d="M 55.777344 145.105469 C 55.777344 154.113281 48.484375 161.414062 39.492188 161.414062 C 30.496094 161.414062 23.207031 154.113281 23.207031 145.105469 C 23.207031 136.097656 30.496094 128.796875 39.492188 128.796875 C 48.484375 128.796875 55.777344 136.097656 55.777344 145.105469 Z M 55.777344 145.105469 "/>
<path style=" stroke:none;fill-rule:nonzero;fill:rgb(24.705882%,23.921569%,33.72549%);fill-opacity:1;" d="M 44.292969 157.6875 C 33.015625 157.6875 23.875 148.53125 23.875 137.238281 C 23.875 125.945312 33.015625 116.789062 44.292969 116.789062 C 55.566406 116.789062 64.707031 125.945312 64.707031 137.238281 C 64.695312 148.527344 55.5625 157.671875 44.292969 157.6875 Z M 44.292969 117.535156 C 33.425781 117.535156 24.617188 126.355469 24.617188 137.238281 C 24.617188 148.121094 33.425781 156.941406 44.292969 156.941406 C 55.15625 156.941406 63.964844 148.121094 63.964844 137.238281 C 63.953125 126.359375 55.152344 117.546875 44.292969 117.535156 Z M 44.292969 117.535156 "/>
<path style=" stroke:none;fill-rule:nonzero;fill:rgb(81.568627%,80.392157%,88.235294%);fill-opacity:1;" d="M 83.367188 212.371094 L 99.191406 212.371094 L 99.191406 228.21875 L 83.367188 228.21875 Z M 83.367188 212.371094 "/>
<path style=" stroke:none;fill-rule:nonzero;fill:rgb(24.705882%,23.921569%,33.72549%);fill-opacity:1;" d="M 108.796875 219.164062 L 89.582031 219.164062 L 89.582031 199.917969 L 108.796875 199.917969 Z M 90.417969 218.328125 L 107.964844 218.328125 L 107.964844 200.753906 L 90.417969 200.753906 Z M 90.417969 218.328125 "/>
<path style=" stroke:none;fill-rule:nonzero;fill:rgb(81.568627%,80.392157%,88.235294%);fill-opacity:1;" d="M 437.730469 212.371094 L 453.554688 212.371094 L 453.554688 228.21875 L 437.730469 228.21875 Z M 437.730469 212.371094 "/>
<path style=" stroke:none;fill-rule:nonzero;fill:rgb(24.705882%,23.921569%,33.72549%);fill-opacity:1;" d="M 463.164062 219.164062 L 443.949219 219.164062 L 443.949219 199.917969 L 463.164062 199.917969 Z M 444.78125 218.328125 L 462.328125 218.328125 L 462.328125 200.753906 L 444.78125 200.753906 Z M 444.78125 218.328125 "/>
</g>
</svg>
